<svg width="26" height="24" viewBox="0 0 26 24" fill="none" xmlns="http://www.w3.org/2000/svg">
<mask id="path-1-inside-1_2747_11" fill="white">
<path d="M18.8594 0.984375C16.3984 0.984375 14.2586 2.09414 13 3.95391C11.7414 2.09414 9.60156 0.984375 7.14062 0.984375C5.27649 0.986546 3.48932 1.72803 2.17118 3.04618C0.853034 4.36432 0.111546 6.15149 0.109375 8.01562C0.109375 11.4375 2.24219 14.9988 6.44922 18.5988C8.37701 20.2415 10.4594 21.6936 12.6672 22.9348C12.7695 22.9897 12.8838 23.0185 13 23.0185C13.1162 23.0185 13.2305 22.9897 13.3328 22.9348C15.5406 21.6936 17.623 20.2415 19.5508 18.5988C23.7578 14.9988 25.8906 11.4375 25.8906 8.01562C25.8885 6.15149 25.147 4.36432 23.8288 3.04618C22.5107 1.72803 20.7235 0.986546 18.8594 0.984375ZM13 21.5051C11.077 20.3953 1.51562 14.5453 1.51562 8.01562C1.51718 6.52426 2.11031 5.09442 3.16486 4.03986C4.21942 2.98531 5.64926 2.39218 7.14062 2.39062C9.51719 2.39063 11.5129 3.65977 12.3496 5.70352C12.4026 5.83248 12.4927 5.94278 12.6085 6.0204C12.7243 6.09803 12.8606 6.13948 13 6.13948C13.1394 6.13948 13.2757 6.09803 13.3915 6.0204C13.5073 5.94278 13.5974 5.83248 13.6504 5.70352C14.4871 3.65977 16.4828 2.39062 18.8594 2.39062C20.3507 2.39218 21.7806 2.98531 22.8351 4.03986C23.8897 5.09442 24.4828 6.52426 24.4844 8.01562C24.4844 14.5453 14.923 20.3953 13 21.5051Z"/>
</mask>
<path d="M18.8594 0.984375C16.3984 0.984375 14.2586 2.09414 13 3.95391C11.7414 2.09414 9.60156 0.984375 7.14062 0.984375C5.27649 0.986546 3.48932 1.72803 2.17118 3.04618C0.853034 4.36432 0.111546 6.15149 0.109375 8.01562C0.109375 11.4375 2.24219 14.9988 6.44922 18.5988C8.37701 20.2415 10.4594 21.6936 12.6672 22.9348C12.7695 22.9897 12.8838 23.0185 13 23.0185C13.1162 23.0185 13.2305 22.9897 13.3328 22.9348C15.5406 21.6936 17.623 20.2415 19.5508 18.5988C23.7578 14.9988 25.8906 11.4375 25.8906 8.01562C25.8885 6.15149 25.147 4.36432 23.8288 3.04618C22.5107 1.72803 20.7235 0.986546 18.8594 0.984375ZM13 21.5051C11.077 20.3953 1.51562 14.5453 1.51562 8.01562C1.51718 6.52426 2.11031 5.09442 3.16486 4.03986C4.21942 2.98531 5.64926 2.39218 7.14062 2.39062C9.51719 2.39063 11.5129 3.65977 12.3496 5.70352C12.4026 5.83248 12.4927 5.94278 12.6085 6.0204C12.7243 6.09803 12.8606 6.13948 13 6.13948C13.1394 6.13948 13.2757 6.09803 13.3915 6.0204C13.5073 5.94278 13.5974 5.83248 13.6504 5.70352C14.4871 3.65977 16.4828 2.39062 18.8594 2.39062C20.3507 2.39218 21.7806 2.98531 22.8351 4.03986C23.8897 5.09442 24.4828 6.52426 24.4844 8.01562C24.4844 14.5453 14.923 20.3953 13 21.5051Z" fill="#FF0000"/>
<path d="M18.8594 0.984375L18.8629 -2.01562H18.8594V0.984375ZM13 3.95391L10.5155 5.63531L13 9.30658L15.4845 5.63531L13 3.95391ZM7.14062 0.984375L7.14062 -2.01563L7.13713 -2.01562L7.14062 0.984375ZM0.109375 8.01562L-2.89062 8.01213V8.01562H0.109375ZM6.44922 18.5988L4.49872 20.8782L4.50348 20.8823L6.44922 18.5988ZM12.6672 22.9348L11.1971 25.5499L11.222 25.5639L11.2472 25.5774L12.6672 22.9348ZM13.3328 22.9348L14.7528 25.5774L14.778 25.5639L14.8029 25.5499L13.3328 22.9348ZM19.5508 18.5988L21.4965 20.8823L21.5013 20.8782L19.5508 18.5988ZM25.8906 8.01562L28.8906 8.01562L28.8906 8.01213L25.8906 8.01562ZM13 21.5051L11.5005 24.1034L13 24.9688L14.4995 24.1034L13 21.5051ZM1.51562 8.01562L-1.48438 8.0125V8.01562H1.51562ZM7.14062 2.39062L7.14062 -0.609377L7.1375 -0.609373L7.14062 2.39062ZM12.3496 5.70352L9.57327 6.84016L9.57461 6.84342L12.3496 5.70352ZM13.6504 5.70352L16.4254 6.84342L16.4267 6.84016L13.6504 5.70352ZM18.8594 2.39062L18.8625 -0.609375H18.8594V2.39062ZM24.4844 8.01562L27.4844 8.01562L27.4844 8.0125L24.4844 8.01562ZM18.8594 -2.01562C15.4779 -2.01562 12.3729 -0.472186 10.5155 2.2725L15.4845 5.63531C16.1443 4.66047 17.319 3.98438 18.8594 3.98438V-2.01562ZM15.4845 2.2725C13.6271 -0.472186 10.5221 -2.01562 7.14062 -2.01562V3.98438C8.681 3.98438 9.85575 4.66047 10.5155 5.63531L15.4845 2.2725ZM7.13713 -2.01562C4.47856 -2.01253 1.92976 -0.95504 0.049858 0.924858L4.2925 5.1675C5.04889 4.41111 6.07442 3.98562 7.14412 3.98437L7.13713 -2.01562ZM0.049858 0.924858C-1.83004 2.80476 -2.88753 5.35356 -2.89062 8.01213L3.10937 8.01912C3.11062 6.94942 3.53611 5.92389 4.2925 5.1675L0.049858 0.924858ZM-2.89062 8.01562C-2.89062 12.7337 0.0293996 17.0538 4.49873 20.8782L8.39971 16.3194C4.45498 12.9439 3.10938 10.1413 3.10938 8.01562H-2.89062ZM4.50348 20.8823C6.57873 22.6506 8.82039 24.2138 11.1971 25.5499L14.1373 20.3197C12.0984 19.1735 10.1753 17.8324 8.39496 16.3154L4.50348 20.8823ZM11.2472 25.5774C11.786 25.867 12.3882 26.0185 13 26.0185V20.0185C13.3795 20.0185 13.753 20.1125 14.0872 20.2921L11.2472 25.5774ZM13 26.0185C13.6118 26.0185 14.214 25.867 14.7528 25.5774L11.9128 20.2921C12.247 20.1125 12.6205 20.0185 13 20.0185V26.0185ZM14.8029 25.5499C17.1796 24.2138 19.4213 22.6506 21.4965 20.8823L17.605 16.3154C15.8247 17.8324 13.9016 19.1735 11.8627 20.3197L14.8029 25.5499ZM21.5013 20.8782C25.9706 17.0538 28.8906 12.7337 28.8906 8.01562H22.8906C22.8906 10.1413 21.545 12.9439 17.6003 16.3194L21.5013 20.8782ZM28.8906 8.01213C28.8875 5.35356 27.83 2.80476 25.9501 0.924858L21.7075 5.1675C22.4639 5.92389 22.8894 6.94942 22.8906 8.01912L28.8906 8.01213ZM25.9501 0.924858C24.0702 -0.95504 21.5214 -2.01253 18.8629 -2.01562L18.8559 3.98437C19.9256 3.98562 20.9511 4.41111 21.7075 5.1675L25.9501 0.924858ZM14.4995 18.9067C13.6165 18.3971 10.9618 16.7849 8.56655 14.5838C6.01555 12.2397 4.51562 9.91611 4.51562 8.01562H-1.48438C-1.48438 12.6448 1.79637 16.5111 4.50679 19.0018C7.37296 21.6356 10.4605 23.5033 11.5005 24.1034L14.4995 18.9067ZM4.51562 8.01875C4.51635 7.32195 4.79347 6.65389 5.28618 6.16118L1.04354 1.91854C-0.572858 3.53494 -1.482 5.72657 -1.48437 8.0125L4.51562 8.01875ZM5.28618 6.16118C5.77889 5.66847 6.44695 5.39135 7.14375 5.39062L7.1375 -0.609373C4.85157 -0.606996 2.65994 0.302142 1.04354 1.91854L5.28618 6.16118ZM7.14062 5.39062C8.42022 5.39063 9.24214 6.03135 9.57327 6.84016L15.1259 4.56687C13.7836 1.28818 10.6142 -0.609375 7.14063 -0.609375L7.14062 5.39062ZM9.57461 6.84342C9.8536 7.5226 10.3282 8.10353 10.9381 8.51236L14.2789 3.52845C14.6572 3.78203 14.9516 4.14235 15.1246 4.56361L9.57461 6.84342ZM10.9381 8.51236C11.548 8.92119 12.2657 9.13948 13 9.13948V3.13948C13.4554 3.13948 13.9006 3.27487 14.2789 3.52845L10.9381 8.51236ZM13 9.13948C13.7343 9.13948 14.452 8.92119 15.0619 8.51236L11.7211 3.52845C12.0994 3.27487 12.5446 3.13948 13 3.13948V9.13948ZM15.0619 8.51236C15.6718 8.10353 16.1464 7.5226 16.4254 6.84342L10.8754 4.56361C11.0484 4.14235 11.3428 3.78203 11.7211 3.52845L15.0619 8.51236ZM16.4267 6.84016C16.7579 6.03135 17.5798 5.39062 18.8594 5.39062V-0.609375C15.3858 -0.609375 12.2164 1.28818 10.8741 4.56687L16.4267 6.84016ZM18.8563 5.39062C19.5531 5.39135 20.2211 5.66847 20.7138 6.16118L24.9565 1.91854C23.3401 0.302141 21.1484 -0.606996 18.8625 -0.609373L18.8563 5.39062ZM20.7138 6.16118C21.2065 6.65389 21.4837 7.32195 21.4844 8.01875L27.4844 8.0125C27.482 5.72657 26.5729 3.53494 24.9565 1.91854L20.7138 6.16118ZM21.4844 8.01562C21.4844 9.91611 19.9845 12.2397 17.4334 14.5838C15.0382 16.7849 12.3835 18.3971 11.5005 18.9067L14.4995 24.1034C15.5395 23.5033 18.627 21.6356 21.4932 19.0018C24.2036 16.5111 27.4844 12.6448 27.4844 8.01562H21.4844Z" fill="#FF0000" mask="url(#path-1-inside-1_2747_11)"/>
<mask id="path-3-inside-2_2747_11" fill="white">
<path d="M18.3167 2.00477C16.0837 2.00477 14.142 3.01175 13 4.69926C11.858 3.01175 9.91631 2.00477 7.6833 2.00477C5.99182 2.00674 4.37018 2.67955 3.17412 3.87561C1.97807 5.07167 1.30525 6.69331 1.30328 8.38479C1.30328 11.4897 3.23856 14.7212 7.05594 17.9878C8.80518 19.4783 10.6947 20.7959 12.698 21.9221C12.7908 21.972 12.8946 21.9981 13 21.9981C13.1054 21.9981 13.2091 21.972 13.302 21.9221C15.3053 20.7959 17.1948 19.4783 18.944 17.9878C22.7614 14.7212 24.6967 11.4897 24.6967 8.38479C24.6947 6.69331 24.0219 5.07167 22.8259 3.87561C21.6298 2.67955 20.0082 2.00674 18.3167 2.00477ZM13 20.6249C11.2551 19.6179 2.57929 14.3097 2.57929 8.38479C2.5807 7.03155 3.11889 5.73414 4.07577 4.77726C5.03266 3.82037 6.33007 3.28218 7.6833 3.28077C9.83975 3.28077 11.6506 4.43237 12.4098 6.28682C12.4579 6.40384 12.5397 6.50393 12.6448 6.57436C12.7498 6.6448 12.8735 6.68241 13 6.68241C13.1265 6.68241 13.2501 6.6448 13.3552 6.57436C13.4603 6.50393 13.5421 6.40384 13.5901 6.28682C14.3494 4.43237 16.1602 3.28077 18.3167 3.28077C19.6699 3.28218 20.9673 3.82037 21.9242 4.77726C22.8811 5.73414 23.4193 7.03155 23.4207 8.38479C23.4207 14.3097 14.7449 19.6179 13 20.6249Z"/>
</mask>
<path d="M18.3167 2.00477C16.0837 2.00477 14.142 3.01175 13 4.69926C11.858 3.01175 9.91631 2.00477 7.6833 2.00477C5.99182 2.00674 4.37018 2.67955 3.17412 3.87561C1.97807 5.07167 1.30525 6.69331 1.30328 8.38479C1.30328 11.4897 3.23856 14.7212 7.05594 17.9878C8.80518 19.4783 10.6947 20.7959 12.698 21.9221C12.7908 21.972 12.8946 21.9981 13 21.9981C13.1054 21.9981 13.2091 21.972 13.302 21.9221C15.3053 20.7959 17.1948 19.4783 18.944 17.9878C22.7614 14.7212 24.6967 11.4897 24.6967 8.38479C24.6947 6.69331 24.0219 5.07167 22.8259 3.87561C21.6298 2.67955 20.0082 2.00674 18.3167 2.00477ZM13 20.6249C11.2551 19.6179 2.57929 14.3097 2.57929 8.38479C2.5807 7.03155 3.11889 5.73414 4.07577 4.77726C5.03266 3.82037 6.33007 3.28218 7.6833 3.28077C9.83975 3.28077 11.6506 4.43237 12.4098 6.28682C12.4579 6.40384 12.5397 6.50393 12.6448 6.57436C12.7498 6.6448 12.8735 6.68241 13 6.68241C13.1265 6.68241 13.2501 6.6448 13.3552 6.57436C13.4603 6.50393 13.5421 6.40384 13.5901 6.28682C14.3494 4.43237 16.1602 3.28077 18.3167 3.28077C19.6699 3.28218 20.9673 3.82037 21.9242 4.77726C22.8811 5.73414 23.4193 7.03155 23.4207 8.38479C23.4207 14.3097 14.7449 19.6179 13 20.6249Z" fill="#FF0000"/>
<path d="M18.3167 2.00477L18.3202 -0.995232H18.3167V2.00477ZM13 4.69926L10.5155 6.38067L13 10.0519L15.4845 6.38067L13 4.69926ZM7.6833 2.00477L7.6833 -0.995234L7.67981 -0.99523L7.6833 2.00477ZM1.30328 8.38479L-1.69672 8.3813V8.38479H1.30328ZM7.05594 17.9878L5.10544 20.2672L5.11019 20.2712L7.05594 17.9878ZM12.698 21.9221L11.2279 24.5372L11.2528 24.5512L11.278 24.5648L12.698 21.9221ZM13.302 21.9221L14.722 24.5648L14.7472 24.5512L14.7721 24.5372L13.302 21.9221ZM18.944 17.9878L20.8898 20.2712L20.8945 20.2672L18.944 17.9878ZM24.6967 8.38479L27.6967 8.38479L27.6967 8.3813L24.6967 8.38479ZM13 20.6249L11.5005 23.2232L13 24.0886L14.4995 23.2232L13 20.6249ZM2.57929 8.38479L-0.420712 8.38167V8.38479H2.57929ZM7.6833 3.28077L7.6833 0.280771L7.68018 0.280774L7.6833 3.28077ZM12.4098 6.28682L9.6335 7.42347L9.63484 7.42673L12.4098 6.28682ZM13.5901 6.28682L16.3651 7.42673L16.3665 7.42347L13.5901 6.28682ZM18.3167 3.28077L18.3198 0.280772H18.3167V3.28077ZM23.4207 8.38479L26.4207 8.38479L26.4207 8.38167L23.4207 8.38479ZM18.3167 -0.995232C15.1631 -0.995232 12.2564 0.445422 10.5155 3.01786L15.4845 6.38067C16.0277 5.57807 17.0042 5.00477 18.3167 5.00477V-0.995232ZM15.4845 3.01786C13.7436 0.445422 10.8369 -0.995232 7.6833 -0.995232V5.00477C8.99575 5.00477 9.97231 5.57807 10.5155 6.38067L15.4845 3.01786ZM7.67981 -0.99523C5.19389 -0.992334 2.81062 -0.00352365 1.0528 1.75429L5.29544 5.99693C5.92975 5.36262 6.78975 5.00581 7.6868 5.00477L7.67981 -0.99523ZM1.0528 1.75429C-0.705008 3.5121 -1.69382 5.89537 -1.69671 8.3813L4.30328 8.38828C4.30433 7.49124 4.66114 6.63124 5.29544 5.99693L1.0528 1.75429ZM-1.69672 8.38479C-1.69672 12.786 1.02577 16.7761 5.10544 20.2672L9.00643 15.7084C5.45134 12.6663 4.30328 10.1935 4.30328 8.38479H-1.69672ZM5.11019 20.2712C7.00689 21.8874 9.05569 23.3161 11.2279 24.5372L14.1681 19.307C12.3337 18.2758 10.6035 17.0692 9.00168 15.7043L5.11019 20.2712ZM11.278 24.5648C11.8074 24.8492 12.399 24.9981 13 24.9981V18.9981C13.3902 18.9981 13.7743 19.0948 14.118 19.2795L11.278 24.5648ZM13 24.9981C13.601 24.9981 14.1926 24.8492 14.722 24.5648L11.882 19.2795C12.2257 19.0948 12.6098 18.9981 13 18.9981V24.9981ZM14.7721 24.5372C16.9443 23.3161 18.9931 21.8874 20.8898 20.2712L16.9983 15.7043C15.3965 17.0692 13.6663 18.2758 11.8319 19.307L14.7721 24.5372ZM20.8945 20.2672C24.9742 16.7761 27.6967 12.786 27.6967 8.38479H21.6967C21.6967 10.1935 20.5486 12.6663 16.9936 15.7084L20.8945 20.2672ZM27.6967 8.3813C27.6938 5.89537 26.705 3.5121 24.9472 1.75429L20.7045 5.99693C21.3388 6.63124 21.6957 7.49124 21.6967 8.38828L27.6967 8.3813ZM24.9472 1.75429C23.1894 -0.0035235 20.8061 -0.992334 18.3202 -0.99523L18.3132 5.00477C19.2102 5.00581 20.0702 5.36262 20.7045 5.99693L24.9472 1.75429ZM14.4995 18.0265C13.7055 17.5683 11.3168 16.1172 9.16517 14.1401C6.85782 12.0198 5.57929 9.98288 5.57929 8.38479H-0.420712C-0.420712 12.7116 2.63864 16.2912 5.1054 18.558C7.72792 20.9679 10.5495 22.6744 11.5005 23.2232L14.4995 18.0265ZM5.57929 8.38791C5.57987 7.82924 5.80206 7.29362 6.19709 6.89858L1.95445 2.65594C0.435726 4.17467 -0.418477 6.23386 -0.42071 8.38167L5.57929 8.38791ZM6.19709 6.89858C6.59213 6.50354 7.12776 6.28135 7.68642 6.28077L7.68018 0.280774C5.53238 0.283008 3.47318 1.13721 1.95445 2.65594L6.19709 6.89858ZM7.6833 6.28077C8.74279 6.28077 9.37987 6.80395 9.6335 7.42347L15.1862 5.15018C13.9214 2.06078 10.9367 0.280772 7.6833 0.280772L7.6833 6.28077ZM9.63484 7.42673C9.90892 8.09397 10.3752 8.66468 10.9744 9.06632L14.3151 4.08241C14.7042 4.34318 15.0069 4.71371 15.1848 5.14692L9.63484 7.42673ZM10.9744 9.06632C11.5736 9.46796 12.2786 9.68241 13 9.68241V3.68241C13.4683 3.68241 13.9261 3.82164 14.3151 4.08241L10.9744 9.06632ZM13 9.68241C13.7213 9.68241 14.4264 9.46796 15.0256 9.06632L11.6848 4.08241C12.0739 3.82164 12.5316 3.68241 13 3.68241V9.68241ZM15.0256 9.06632C15.6248 8.66468 16.0911 8.09397 16.3651 7.42673L10.8151 5.14692C10.9931 4.71371 11.2958 4.34318 11.6848 4.08241L15.0256 9.06632ZM16.3665 7.42347C16.6201 6.80395 17.2572 6.28077 18.3167 6.28077V0.280772C15.0633 0.280772 12.0786 2.06078 10.8138 5.15018L16.3665 7.42347ZM18.3136 6.28077C18.8722 6.28135 19.4078 6.50354 19.8029 6.89858L24.0455 2.65594C22.5268 1.13721 20.4676 0.283008 18.3198 0.280774L18.3136 6.28077ZM19.8029 6.89858C20.1979 7.29362 20.4201 7.82924 20.4207 8.38791L26.4207 8.38167C26.4185 6.23386 25.5643 4.17467 24.0455 2.65594L19.8029 6.89858ZM20.4207 8.38479C20.4207 9.98288 19.1422 12.0198 16.8348 14.1401C14.6832 16.1172 12.2945 17.5683 11.5005 18.0265L14.4995 23.2232C15.4504 22.6744 18.2721 20.9679 20.8946 18.558C23.3613 16.2912 26.4207 12.7116 26.4207 8.38479H20.4207Z" fill="#FF0000" mask="url(#path-3-inside-2_2747_11)"/>
<mask id="path-5-inside-3_2747_11" fill="white">
<path d="M17.8946 2.7983C15.8389 2.7983 14.0513 3.72535 13 5.27891C11.9486 3.72535 10.1611 2.7983 8.10533 2.7983C6.54811 2.80012 5.0552 3.41952 3.95408 4.52064C2.85297 5.62175 2.23356 7.11467 2.23175 8.67188C2.23175 11.5304 4.0134 14.5053 7.52776 17.5126C9.13815 18.8848 10.8777 20.0978 12.722 21.1346C12.8074 21.1806 12.9029 21.2046 13 21.2046C13.097 21.2046 13.1925 21.1806 13.278 21.1346C15.1223 20.0978 16.8618 18.8848 18.4722 17.5126C21.9865 14.5053 23.7682 11.5304 23.7682 8.67188C23.7664 7.11467 23.147 5.62175 22.0459 4.52064C20.9447 3.41952 19.4518 2.80012 17.8946 2.7983ZM13 19.9403C11.3936 19.0133 3.40647 14.1265 3.40647 8.67188C3.40776 7.42606 3.90323 6.23164 4.78416 5.35071C5.66509 4.46979 6.85951 3.97431 8.10533 3.97302C10.0906 3.97302 11.7577 5.0332 12.4567 6.74045C12.5009 6.84818 12.5762 6.94032 12.6729 7.00516C12.7697 7.07001 12.8835 7.10463 13 7.10463C13.1164 7.10463 13.2303 7.07001 13.327 7.00516C13.4237 6.94032 13.499 6.84818 13.5433 6.74045C14.2422 5.0332 15.9094 3.97302 17.8946 3.97302C19.1404 3.97431 20.3349 4.46979 21.2158 5.35071C22.0967 6.23164 22.5922 7.42606 22.5935 8.67188C22.5935 14.1265 14.6064 19.0133 13 19.9403Z"/>
</mask>
<path d="M17.8946 2.7983C15.8389 2.7983 14.0513 3.72535 13 5.27891C11.9486 3.72535 10.1611 2.7983 8.10533 2.7983C6.54811 2.80012 5.0552 3.41952 3.95408 4.52064C2.85297 5.62175 2.23356 7.11467 2.23175 8.67188C2.23175 11.5304 4.0134 14.5053 7.52776 17.5126C9.13815 18.8848 10.8777 20.0978 12.722 21.1346C12.8074 21.1806 12.9029 21.2046 13 21.2046C13.097 21.2046 13.1925 21.1806 13.278 21.1346C15.1223 20.0978 16.8618 18.8848 18.4722 17.5126C21.9865 14.5053 23.7682 11.5304 23.7682 8.67188C23.7664 7.11467 23.147 5.62175 22.0459 4.52064C20.9447 3.41952 19.4518 2.80012 17.8946 2.7983ZM13 19.9403C11.3936 19.0133 3.40647 14.1265 3.40647 8.67188C3.40776 7.42606 3.90323 6.23164 4.78416 5.35071C5.66509 4.46979 6.85951 3.97431 8.10533 3.97302C10.0906 3.97302 11.7577 5.0332 12.4567 6.74045C12.5009 6.84818 12.5762 6.94032 12.6729 7.00516C12.7697 7.07001 12.8835 7.10463 13 7.10463C13.1164 7.10463 13.2303 7.07001 13.327 7.00516C13.4237 6.94032 13.499 6.84818 13.5433 6.74045C14.2422 5.0332 15.9094 3.97302 17.8946 3.97302C19.1404 3.97431 20.3349 4.46979 21.2158 5.35071C22.0967 6.23164 22.5922 7.42606 22.5935 8.67188C22.5935 14.1265 14.6064 19.0133 13 19.9403Z" fill="#FF0000"/>
<path d="M17.8946 2.7983L17.8981 -0.201698H17.8946V2.7983ZM13 5.27891L10.5154 6.96031L13 10.6316L15.4845 6.96031L13 5.27891ZM8.10533 2.7983L8.10533 -0.2017L8.10183 -0.201696L8.10533 2.7983ZM2.23175 8.67188L-0.76825 8.66838V8.67188H2.23175ZM7.52776 17.5126L5.57726 19.792L5.58202 19.796L7.52776 17.5126ZM12.722 21.1346L11.2518 23.7497L11.2768 23.7637L11.302 23.7773L12.722 21.1346ZM13.278 21.1346L14.698 23.7773L14.7232 23.7637L14.7481 23.7497L13.278 21.1346ZM18.4722 17.5126L20.4179 19.796L20.4227 19.792L18.4722 17.5126ZM23.7682 8.67188L26.7682 8.67188L26.7682 8.66838L23.7682 8.67188ZM13 19.9403L11.5005 22.5387L13 23.404L14.4995 22.5387L13 19.9403ZM3.40647 8.67188L0.406466 8.66876V8.67188H3.40647ZM8.10533 3.97302L8.10533 0.973015L8.10221 0.973019L8.10533 3.97302ZM12.4567 6.74045L9.68033 7.87709L9.68167 7.88035L12.4567 6.74045ZM13.5433 6.74045L16.3183 7.88035L16.3196 7.87709L13.5433 6.74045ZM17.8946 3.97302L17.8977 0.973017H17.8946V3.97302ZM22.5935 8.67188L25.5935 8.67188L25.5935 8.66876L22.5935 8.67188ZM17.8946 -0.201698C14.9183 -0.201698 12.1657 1.15902 10.5154 3.59751L15.4845 6.96031C15.937 6.29167 16.7594 5.7983 17.8946 5.7983V-0.201698ZM15.4845 3.59751C13.8343 1.15902 11.0816 -0.201698 8.10533 -0.201698V5.7983C9.24052 5.7983 10.0629 6.29167 10.5154 6.96031L15.4845 3.59751ZM8.10183 -0.201696C5.75018 -0.198957 3.49563 0.736446 1.83276 2.39932L6.0754 6.64196C6.61477 6.10259 7.34605 5.79919 8.10882 5.7983L8.10183 -0.201696ZM1.83276 2.39932C0.169895 4.06218 -0.765509 6.31673 -0.768247 8.66838L5.23175 8.67537C5.23264 7.9126 5.53604 7.18132 6.0754 6.64196L1.83276 2.39932ZM-0.76825 8.67188C-0.76825 12.8266 1.80061 16.5603 5.57727 19.792L9.47825 15.2332C6.22619 12.4504 5.23175 10.2341 5.23175 8.67188H-0.76825ZM5.58202 19.796C7.33986 21.2939 9.23867 22.618 11.2518 23.7497L14.1921 18.5195C12.5167 17.5777 10.9364 16.4757 9.4735 15.2292L5.58202 19.796ZM11.302 23.7773C11.824 24.0578 12.4073 24.2046 13 24.2046V18.2046C13.3986 18.2046 13.7909 18.3033 14.142 18.492L11.302 23.7773ZM13 24.2046C13.5926 24.2046 14.176 24.0578 14.698 23.7773L11.858 18.492C12.209 18.3033 12.6014 18.2046 13 18.2046V24.2046ZM14.7481 23.7497C16.7613 22.618 18.6601 21.2939 20.4179 19.796L16.5264 15.2292C15.0635 16.4757 13.4833 17.5777 11.8079 18.5195L14.7481 23.7497ZM20.4227 19.792C24.1993 16.5603 26.7682 12.8266 26.7682 8.67188H20.7682C20.7682 10.2341 19.7738 12.4504 16.5217 15.2332L20.4227 19.792ZM26.7682 8.66838C26.7655 6.31673 25.8301 4.06218 24.1672 2.39932L19.9245 6.64196C20.4639 7.18132 20.7673 7.9126 20.7682 8.67537L26.7682 8.66838ZM24.1672 2.39932C22.5043 0.736446 20.2498 -0.198957 17.8981 -0.201696L17.8911 5.7983C18.6539 5.79919 19.3852 6.10259 19.9245 6.64196L24.1672 2.39932ZM14.4995 17.342C13.7748 16.9237 11.5928 15.598 9.6307 13.795C7.51283 11.8488 6.40647 10.0348 6.40647 8.67188H0.406466C0.406466 12.7635 3.29365 16.1203 5.57093 18.2129C8.00396 20.4487 10.6188 22.0299 11.5005 22.5387L14.4995 17.342ZM6.40646 8.675C6.40693 8.22375 6.5864 7.79112 6.90548 7.47203L2.66284 3.22939C1.22007 4.67216 0.40859 6.62837 0.406467 8.66876L6.40646 8.675ZM6.90548 7.47203C7.22456 7.15295 7.6572 6.97348 8.10845 6.97302L8.10221 0.973019C6.06182 0.975141 4.10561 1.78662 2.66284 3.22939L6.90548 7.47203ZM8.10533 6.97302C8.99363 6.97302 9.48697 7.40478 9.68033 7.87709L15.233 5.60381C14.0285 2.66161 11.1876 0.973017 8.10533 0.973017L8.10533 6.97302ZM9.68167 7.88035C9.95194 8.53831 10.4117 9.10107 11.0026 9.49712L14.3433 4.51321C14.7407 4.77957 15.0499 5.15805 15.2317 5.60055L9.68167 7.88035ZM11.0026 9.49712C11.5934 9.89317 12.2887 10.1046 13 10.1046V4.10463C13.4784 4.10463 13.9459 4.24685 14.3433 4.51321L11.0026 9.49712ZM13 10.1046C13.7113 10.1046 14.4065 9.89317 14.9974 9.49712L11.6566 4.51321C12.054 4.24685 12.5216 4.10463 13 4.10463V10.1046ZM14.9974 9.49712C15.5882 9.10107 16.048 8.53831 16.3183 7.88035L10.7683 5.60055C10.95 5.15805 11.2593 4.77957 11.6566 4.51321L14.9974 9.49712ZM16.3196 7.87709C16.513 7.40478 17.0063 6.97302 17.8946 6.97302V0.973017C14.8124 0.973017 11.9715 2.66161 10.7669 5.60381L16.3196 7.87709ZM17.8915 6.97302C18.3428 6.97348 18.7754 7.15295 19.0945 7.47203L23.3371 3.22939C21.8943 1.78662 19.9381 0.975141 17.8977 0.973019L17.8915 6.97302ZM19.0945 7.47203C19.4135 7.79111 19.593 8.22375 19.5935 8.675L25.5935 8.66876C25.5914 6.62837 24.7799 4.67216 23.3371 3.22939L19.0945 7.47203ZM19.5935 8.67188C19.5935 10.0348 18.4871 11.8488 16.3693 13.795C14.4071 15.598 12.2252 16.9237 11.5005 17.342L14.4995 22.5387C15.3812 22.0299 17.996 20.4487 20.429 18.2129C22.7063 16.1203 25.5935 12.7635 25.5935 8.67188H19.5935Z" fill="#FF0000" mask="url(#path-5-inside-3_2747_11)"/>
<mask id="path-7-inside-4_2747_11" fill="white">
<path d="M17.4053 3.71698C15.555 3.71698 13.9462 4.55134 13 5.94958C12.0537 4.55134 10.4449 3.71698 8.59469 3.71698C7.19316 3.71861 5.84951 4.27609 4.85849 5.26712C3.86746 6.25814 3.30998 7.6018 3.30835 9.00332C3.30835 11.576 4.91187 14.2535 8.07486 16.9601C9.52425 18.1952 11.0899 19.2869 12.7497 20.22C12.8267 20.2614 12.9126 20.283 13 20.283C13.0873 20.283 13.1733 20.2614 13.2502 20.22C14.9101 19.2869 16.4757 18.1952 17.9251 16.9601C21.0881 14.2535 22.6916 11.576 22.6916 9.00332C22.69 7.6018 22.1325 6.25814 21.1415 5.26712C20.1504 4.27609 18.8068 3.71861 17.4053 3.71698ZM13 19.1452C11.5542 18.3108 4.36562 13.9126 4.36562 9.00332C4.36678 7.88206 4.81272 6.80705 5.60557 6.0142C6.39842 5.22135 7.47343 4.77541 8.59469 4.77425C10.3815 4.77425 11.8819 5.72843 12.511 7.26499C12.5508 7.36195 12.6186 7.44488 12.7056 7.50324C12.7927 7.5616 12.8952 7.59276 13 7.59276C13.1048 7.59276 13.2072 7.5616 13.2943 7.50324C13.3814 7.44488 13.4491 7.36195 13.489 7.26499C14.118 5.72843 15.6185 4.77425 17.4053 4.77425C18.5265 4.77541 19.6015 5.22135 20.3944 6.0142C21.1872 6.80705 21.6332 7.88206 21.6343 9.00332C21.6343 13.9126 14.4458 18.3108 13 19.1452Z"/>
</mask>
<path d="M17.4053 3.71698C15.555 3.71698 13.9462 4.55134 13 5.94958C12.0537 4.55134 10.4449 3.71698 8.59469 3.71698C7.19316 3.71861 5.84951 4.27609 4.85849 5.26712C3.86746 6.25814 3.30998 7.6018 3.30835 9.00332C3.30835 11.576 4.91187 14.2535 8.07486 16.9601C9.52425 18.1952 11.0899 19.2869 12.7497 20.22C12.8267 20.2614 12.9126 20.283 13 20.283C13.0873 20.283 13.1733 20.2614 13.2502 20.22C14.9101 19.2869 16.4757 18.1952 17.9251 16.9601C21.0881 14.2535 22.6916 11.576 22.6916 9.00332C22.69 7.6018 22.1325 6.25814 21.1415 5.26712C20.1504 4.27609 18.8068 3.71861 17.4053 3.71698ZM13 19.1452C11.5542 18.3108 4.36562 13.9126 4.36562 9.00332C4.36678 7.88206 4.81272 6.80705 5.60557 6.0142C6.39842 5.22135 7.47343 4.77541 8.59469 4.77425C10.3815 4.77425 11.8819 5.72843 12.511 7.26499C12.5508 7.36195 12.6186 7.44488 12.7056 7.50324C12.7927 7.5616 12.8952 7.59276 13 7.59276C13.1048 7.59276 13.2072 7.5616 13.2943 7.50324C13.3814 7.44488 13.4491 7.36195 13.489 7.26499C14.118 5.72843 15.6185 4.77425 17.4053 4.77425C18.5265 4.77541 19.6015 5.22135 20.3944 6.0142C21.1872 6.80705 21.6332 7.88206 21.6343 9.00332C21.6343 13.9126 14.4458 18.3108 13 19.1452Z" fill="#FF0000"/>
<path d="M17.4053 3.71698L17.4087 0.71698H17.4053V3.71698ZM13 5.94958L10.5154 7.63098L13 11.3023L15.4845 7.63098L13 5.94958ZM8.59469 3.71698L8.59469 0.716978L8.59119 0.716982L8.59469 3.71698ZM3.30835 9.00332L0.30835 8.99982V9.00332H3.30835ZM8.07486 16.9601L6.12437 19.2395L6.12912 19.2436L8.07486 16.9601ZM12.7497 20.22L11.2796 22.8351L11.3046 22.8492L11.3297 22.8627L12.7497 20.22ZM13.2502 20.22L14.6702 22.8627L14.6954 22.8492L14.7203 22.8351L13.2502 20.22ZM17.9251 16.9601L19.8708 19.2436L19.8756 19.2395L17.9251 16.9601ZM22.6916 9.00332L25.6916 9.00332L25.6916 8.99982L22.6916 9.00332ZM13 19.1452L11.5005 21.7435L13 22.6089L14.4995 21.7435L13 19.1452ZM4.36562 9.00332L1.36562 9.0002V9.00332H4.36562ZM8.59469 4.77425L8.59469 1.77425L8.59157 1.77425L8.59469 4.77425ZM12.511 7.26499L9.73464 8.40164L9.73598 8.40489L12.511 7.26499ZM13.489 7.26499L16.264 8.4049L16.2653 8.40164L13.489 7.26499ZM17.4053 4.77425L17.4084 1.77425H17.4053V4.77425ZM21.6343 9.00332L24.6343 9.00332L24.6343 9.0002L21.6343 9.00332ZM17.4053 0.71698C14.6345 0.71698 12.0606 1.98501 10.5154 4.26817L15.4845 7.63098C15.8319 7.11767 16.4756 6.71698 17.4053 6.71698V0.71698ZM15.4845 4.26817C13.9394 1.98501 11.3655 0.71698 8.59469 0.71698V6.71698C9.52435 6.71698 10.1681 7.11767 10.5154 7.63098L15.4845 4.26817ZM8.59119 0.716982C6.39523 0.719539 4.28994 1.59301 2.73716 3.1458L6.97981 7.38844C7.40908 6.95916 7.9911 6.71768 8.59818 6.71698L8.59119 0.716982ZM2.73716 3.1458C1.18438 4.69858 0.310909 6.80386 0.308352 8.99982L6.30835 9.00681C6.30905 8.39973 6.55053 7.81771 6.97981 7.38844L2.73716 3.1458ZM0.30835 9.00332C0.30835 12.8722 2.69908 16.3085 6.12437 19.2395L10.0254 14.6808C7.12466 12.1986 6.30835 10.2798 6.30835 9.00332H0.30835ZM6.12912 19.2436C7.72596 20.6043 9.45085 21.8071 11.2796 22.8351L14.2199 17.6049C12.7289 16.7667 11.3225 15.7861 10.0206 14.6767L6.12912 19.2436ZM11.3297 22.8627C11.8432 23.1386 12.417 23.283 13 23.283V17.283C13.4083 17.283 13.8101 17.3842 14.1697 17.5774L11.3297 22.8627ZM13 23.283C13.5829 23.283 14.1567 23.1386 14.6702 22.8627L11.8302 17.5774C12.1898 17.3842 12.5917 17.283 13 17.283V23.283ZM14.7203 22.8351C16.5491 21.8071 18.274 20.6043 19.8708 19.2436L15.9793 14.6767C14.6774 15.7861 13.2711 16.7667 11.7801 17.6049L14.7203 22.8351ZM19.8756 19.2395C23.3009 16.3085 25.6916 12.8722 25.6916 9.00332H19.6916C19.6916 10.2798 18.8753 12.1986 15.9746 14.6808L19.8756 19.2395ZM25.6916 8.99982C25.689 6.80386 24.8156 4.69857 23.2628 3.1458L19.0201 7.38844C19.4494 7.81771 19.6909 8.39973 19.6916 9.00681L25.6916 8.99982ZM23.2628 3.1458C21.71 1.59302 19.6047 0.719539 17.4087 0.716982L17.4018 6.71698C18.0088 6.71768 18.5909 6.95916 19.0201 7.38844L23.2628 3.1458ZM14.4995 16.5468C13.8551 16.1749 11.9129 14.9945 10.1705 13.3933C8.27234 11.6491 7.36562 10.0936 7.36562 9.00332H1.36562C1.36562 12.8223 4.05316 15.9205 6.11073 17.8113C8.32405 19.8452 10.6991 21.281 11.5005 21.7435L14.4995 16.5468ZM7.36562 9.00644C7.36596 8.67975 7.49588 8.36653 7.72689 8.13552L3.48425 3.89288C2.12955 5.24758 1.36761 7.08437 1.36562 9.0002L7.36562 9.00644ZM7.72689 8.13552C7.9579 7.90451 8.27111 7.77459 8.59781 7.77425L8.59157 1.77425C6.67574 1.77624 4.83895 2.53818 3.48425 3.89288L7.72689 8.13552ZM8.59469 7.77425C9.28451 7.77425 9.61116 8.10002 9.73465 8.40164L15.2873 6.12835C14.1527 3.35684 11.4784 1.77425 8.59469 1.77425L8.59469 7.77425ZM9.73598 8.40489C10.0018 9.05208 10.4541 9.60563 11.0353 9.9952L14.376 5.01128C14.7831 5.28413 15.0998 5.67182 15.286 6.12509L9.73598 8.40489ZM11.0353 9.9952C11.6164 10.3848 12.3003 10.5928 13 10.5928V4.59276C13.49 4.59276 13.969 4.73844 14.376 5.01128L11.0353 9.9952ZM13 10.5928C13.6996 10.5928 14.3835 10.3848 14.9647 9.9952L11.6239 5.01128C12.031 4.73844 12.5099 4.59276 13 4.59276V10.5928ZM14.9647 9.9952C15.5459 9.60563 15.9981 9.05208 16.264 8.40489L10.714 6.12509C10.9001 5.67182 11.2169 5.28413 11.6239 5.01128L14.9647 9.9952ZM16.2653 8.40164C16.3888 8.10002 16.7154 7.77425 17.4053 7.77425V1.77425C14.5215 1.77425 11.8473 3.35684 10.7126 6.12835L16.2653 8.40164ZM17.4021 7.77425C17.7288 7.77459 18.042 7.90452 18.273 8.13552L22.5157 3.89288C21.161 2.53818 19.3242 1.77624 17.4084 1.77425L17.4021 7.77425ZM18.273 8.13552C18.5041 8.36653 18.634 8.67974 18.6343 9.00644L24.6343 9.0002C24.6323 7.08437 23.8704 5.24758 22.5157 3.89288L18.273 8.13552ZM18.6343 9.00332C18.6343 10.0936 17.7276 11.6491 15.8294 13.3933C14.087 14.9945 12.1449 16.1749 11.5005 16.5468L14.4995 21.7435C15.3009 21.281 17.6759 19.8452 19.8892 17.8113C21.9468 15.9205 24.6343 12.8223 24.6343 9.00332H18.6343Z" fill="#FF0000" mask="url(#path-7-inside-4_2747_11)"/>
<mask id="path-9-inside-5_2747_11" fill="white">
<path d="M16.952 4.56931C15.2921 4.56931 13.8489 5.31782 13 6.57217C12.1511 5.31782 10.7079 4.56931 9.04803 4.56931C7.79073 4.57078 6.58534 5.07089 5.69629 5.95994C4.80724 6.84899 4.30713 8.05437 4.30566 9.31168C4.30566 11.6196 5.74418 14.0216 8.5817 16.4497C9.88193 17.5577 11.2864 18.5371 12.7755 19.3742C12.8445 19.4113 12.9217 19.4307 13 19.4307C13.0783 19.4307 13.1555 19.4113 13.2245 19.3742C14.7136 18.5371 16.1181 17.5577 17.4183 16.4497C20.2558 14.0216 21.6943 11.6196 21.6943 9.31168C21.6929 8.05437 21.1928 6.84899 20.3037 5.95994C19.4147 5.07089 18.2093 4.57078 16.952 4.56931ZM13 18.4099C11.703 17.6614 5.25414 13.7158 5.25414 9.31168C5.25518 8.3058 5.65523 7.34141 6.3665 6.63015C7.07776 5.91888 8.04215 5.51883 9.04803 5.51779C10.6509 5.51779 11.997 6.37378 12.5613 7.75223C12.5971 7.83921 12.6578 7.91361 12.7359 7.96596C12.8141 8.01832 12.906 8.04627 13 8.04627C13.094 8.04627 13.1859 8.01832 13.2641 7.96596C13.3422 7.91361 13.4029 7.83921 13.4387 7.75223C14.003 6.37378 15.3491 5.51779 16.952 5.51779C17.9579 5.51883 18.9222 5.91888 19.6335 6.63015C20.3448 7.34141 20.7448 8.3058 20.7459 9.31168C20.7459 13.7158 14.297 17.6614 13 18.4099Z"/>
</mask>
<path d="M16.952 4.56931C15.2921 4.56931 13.8489 5.31782 13 6.57217C12.1511 5.31782 10.7079 4.56931 9.04803 4.56931C7.79073 4.57078 6.58534 5.07089 5.69629 5.95994C4.80724 6.84899 4.30713 8.05437 4.30566 9.31168C4.30566 11.6196 5.74418 14.0216 8.5817 16.4497C9.88193 17.5577 11.2864 18.5371 12.7755 19.3742C12.8445 19.4113 12.9217 19.4307 13 19.4307C13.0783 19.4307 13.1555 19.4113 13.2245 19.3742C14.7136 18.5371 16.1181 17.5577 17.4183 16.4497C20.2558 14.0216 21.6943 11.6196 21.6943 9.31168C21.6929 8.05437 21.1928 6.84899 20.3037 5.95994C19.4147 5.07089 18.2093 4.57078 16.952 4.56931ZM13 18.4099C11.703 17.6614 5.25414 13.7158 5.25414 9.31168C5.25518 8.3058 5.65523 7.34141 6.3665 6.63015C7.07776 5.91888 8.04215 5.51883 9.04803 5.51779C10.6509 5.51779 11.997 6.37378 12.5613 7.75223C12.5971 7.83921 12.6578 7.91361 12.7359 7.96596C12.8141 8.01832 12.906 8.04627 13 8.04627C13.094 8.04627 13.1859 8.01832 13.2641 7.96596C13.3422 7.91361 13.4029 7.83921 13.4387 7.75223C14.003 6.37378 15.3491 5.51779 16.952 5.51779C17.9579 5.51883 18.9222 5.91888 19.6335 6.63015C20.3448 7.34141 20.7448 8.3058 20.7459 9.31168C20.7459 13.7158 14.297 17.6614 13 18.4099Z" fill="#FF0000"/>
<path d="M16.952 4.56931L16.9555 1.56931H16.952V4.56931ZM13 6.57217L10.5155 8.25357L13 11.9248L15.4845 8.25357L13 6.57217ZM9.04803 4.56931L9.04803 1.56931L9.04454 1.56932L9.04803 4.56931ZM4.30566 9.31168L1.30566 9.30818V9.31168H4.30566ZM8.5817 16.4497L6.6312 18.7291L6.63595 18.7332L8.5817 16.4497ZM12.7755 19.3742L11.3054 21.9893L11.3303 22.0033L11.3555 22.0168L12.7755 19.3742ZM13.2245 19.3742L14.6445 22.0168L14.6697 22.0033L14.6946 21.9893L13.2245 19.3742ZM17.4183 16.4497L19.364 18.7332L19.3688 18.7291L17.4183 16.4497ZM21.6943 9.31168L24.6943 9.31168L24.6943 9.30818L21.6943 9.31168ZM13 18.4099L11.5005 21.0083L13 21.8736L14.4995 21.0083L13 18.4099ZM5.25414 9.31168L2.25414 9.30856V9.31168H5.25414ZM9.04803 5.51779L9.04803 2.51778L9.04491 2.51779L9.04803 5.51779ZM12.5613 7.75223L9.78499 8.88887L9.78633 8.89213L12.5613 7.75223ZM13.4387 7.75223L16.2137 8.89213L16.215 8.88887L13.4387 7.75223ZM16.952 5.51779L16.9551 2.51779H16.952V5.51779ZM20.7459 9.31168L23.7459 9.31168L23.7459 9.30856L20.7459 9.31168ZM16.952 1.56931C14.3716 1.56931 11.9632 2.75149 10.5155 4.89077L15.4845 8.25357C15.7345 7.88414 16.2127 7.56931 16.952 7.56931V1.56931ZM15.4845 4.89077C14.0368 2.75149 11.6284 1.56931 9.04803 1.56931V7.56931C9.7873 7.56931 10.2655 7.88414 10.5155 8.25357L15.4845 4.89077ZM9.04454 1.56932C6.99279 1.5717 5.02577 2.38781 3.57497 3.83862L7.81761 8.08126C8.1449 7.75396 8.58866 7.56985 9.05152 7.56931L9.04454 1.56932ZM3.57497 3.83862C2.12417 5.28942 1.30806 7.25644 1.30567 9.30818L7.30566 9.31517C7.3062 8.85231 7.49031 8.40855 7.81761 8.08126L3.57497 3.83862ZM1.30566 9.31168C1.30566 12.9159 3.53139 16.0766 6.63121 18.7291L10.5322 14.1703C7.95697 11.9667 7.30566 10.3234 7.30566 9.31168H1.30566ZM6.63595 18.7332C8.08365 19.9668 9.64744 21.0572 11.3054 21.9893L14.2457 16.7591C12.9254 16.0169 11.6802 15.1486 10.5274 14.1663L6.63595 18.7332ZM11.3555 22.0168C11.8611 22.2885 12.426 22.4307 13 22.4307V16.4307C13.4173 16.4307 13.828 16.5341 14.1955 16.7315L11.3555 22.0168ZM13 22.4307C13.574 22.4307 14.1389 22.2885 14.6445 22.0168L11.8045 16.7315C12.172 16.5341 12.5827 16.4307 13 16.4307V22.4307ZM14.6946 21.9893C16.3526 21.0572 17.9163 19.9668 19.364 18.7332L15.4726 14.1663C14.3198 15.1486 13.0746 16.0169 11.7543 16.7591L14.6946 21.9893ZM19.3688 18.7291C22.4686 16.0766 24.6943 12.9159 24.6943 9.31168H18.6943C18.6943 10.3234 18.043 11.9667 15.4678 14.1703L19.3688 18.7291ZM24.6943 9.30818C24.6919 7.25644 23.8758 5.28942 22.425 3.83862L18.1824 8.08126C18.5097 8.40855 18.6938 8.85231 18.6943 9.31517L24.6943 9.30818ZM22.425 3.83862C20.9742 2.38781 19.0072 1.5717 16.9555 1.56932L16.9485 7.56931C17.4113 7.56985 17.8551 7.75396 18.1824 8.08126L22.425 3.83862ZM14.4995 15.8115C13.9295 15.4826 12.2094 14.4368 10.6706 13.0227C8.97594 11.4654 8.25414 10.1494 8.25414 9.31168H2.25414C2.25414 12.8781 4.75675 15.7369 6.6108 17.4406C8.62059 19.2875 10.7735 20.5887 11.5005 21.0083L14.4995 15.8115ZM8.25414 9.3148C8.25436 9.10348 8.3384 8.90089 8.48782 8.75147L4.24518 4.50883C2.97207 5.78194 2.25601 7.50811 2.25414 9.30856L8.25414 9.3148ZM8.48782 8.75147C8.63724 8.60205 8.83984 8.518 9.05115 8.51778L9.04491 2.51779C7.24446 2.51966 5.51829 3.23572 4.24518 4.50883L8.48782 8.75147ZM9.04803 8.51779C9.31292 8.51779 9.48567 8.58684 9.58421 8.64952C9.67845 8.70945 9.74267 8.7855 9.78499 8.88887L15.3377 6.61559C14.2677 4.0022 11.7479 2.51779 9.04803 2.51779L9.04803 8.51779ZM9.78633 8.89213C10.0481 9.52934 10.4934 10.0744 11.0656 10.4579L14.4063 5.474C14.8223 5.75286 15.146 6.14908 15.3363 6.61233L9.78633 8.89213ZM11.0656 10.4579C11.6378 10.8415 12.3111 11.0463 13 11.0463V5.04627C13.5008 5.04627 13.9903 5.19516 14.4063 5.474L11.0656 10.4579ZM13 11.0463C13.6889 11.0463 14.3622 10.8415 14.9344 10.4579L11.5937 5.474C12.0097 5.19516 12.4992 5.04627 13 5.04627V11.0463ZM14.9344 10.4579C15.5066 10.0744 15.9519 9.52934 16.2137 8.89213L10.6637 6.61233C10.854 6.14908 11.1777 5.75286 11.5937 5.474L14.9344 10.4579ZM16.215 8.88887C16.2573 8.7855 16.3215 8.70945 16.4158 8.64952C16.5143 8.58684 16.6871 8.51779 16.952 8.51779V2.51779C14.2521 2.51779 11.7323 4.0022 10.6623 6.61559L16.215 8.88887ZM16.9489 8.51778C17.1602 8.518 17.3628 8.60205 17.5122 8.75147L21.7548 4.50883C20.4817 3.23572 18.7555 2.51966 16.9551 2.51779L16.9489 8.51778ZM17.5122 8.75147C17.6616 8.90089 17.7456 9.10348 17.7459 9.3148L23.7459 9.30856C23.744 7.50811 23.0279 5.78194 21.7548 4.50883L17.5122 8.75147ZM17.7459 9.31168C17.7459 10.1494 17.0241 11.4654 15.3294 13.0227C13.7906 14.4368 12.0705 15.4826 11.5005 15.8115L14.4995 21.0083C15.2265 20.5887 17.3794 19.2875 19.3892 17.4406C21.2432 15.7369 23.7459 12.8781 23.7459 9.31168H17.7459Z" fill="#FF0000" mask="url(#path-9-inside-5_2747_11)"/>
<mask id="path-11-inside-6_2747_11" fill="white">
<path d="M16.6579 5.12357C15.1216 5.12357 13.7857 5.81639 13 6.97743C12.2142 5.81639 10.8784 5.12357 9.34201 5.12357C8.17824 5.12493 7.06253 5.58783 6.23962 6.41074C5.41671 7.23365 4.95381 8.34936 4.95245 9.51313C4.95245 11.6494 6.28395 13.8727 8.91037 16.1201C10.1139 17.1457 11.4139 18.0522 12.7922 18.827C12.8561 18.8614 12.9275 18.8793 13 18.8793C13.0725 18.8793 13.1439 18.8614 13.2077 18.827C14.5861 18.0522 15.8861 17.1457 17.0896 16.1201C19.716 13.8727 21.0475 11.6494 21.0475 9.51313C21.0461 8.34936 20.5832 7.23365 19.7603 6.41074C18.9374 5.58783 17.8217 5.12493 16.6579 5.12357ZM13 17.9345C11.7994 17.2417 5.83036 13.5896 5.83036 9.51313C5.83133 8.58208 6.20162 7.68944 6.85997 7.03109C7.51832 6.37274 8.41096 6.00245 9.34201 6.00148C10.8257 6.00148 12.0716 6.7938 12.5939 8.0697C12.627 8.1502 12.6833 8.21907 12.7556 8.26753C12.8279 8.31599 12.9129 8.34186 13 8.34186C13.087 8.34186 13.1721 8.31599 13.2444 8.26753C13.3167 8.21907 13.3729 8.1502 13.406 8.0697C13.9284 6.7938 15.1743 6.00148 16.6579 6.00148C17.589 6.00245 18.4816 6.37274 19.14 7.03109C19.7983 7.68944 20.1686 8.58208 20.1696 9.51313C20.1696 13.5896 14.2005 17.2417 13 17.9345Z"/>
</mask>
<path d="M16.6579 5.12357C15.1216 5.12357 13.7857 5.81639 13 6.97743C12.2142 5.81639 10.8784 5.12357 9.34201 5.12357C8.17824 5.12493 7.06253 5.58783 6.23962 6.41074C5.41671 7.23365 4.95381 8.34936 4.95245 9.51313C4.95245 11.6494 6.28395 13.8727 8.91037 16.1201C10.1139 17.1457 11.4139 18.0522 12.7922 18.827C12.8561 18.8614 12.9275 18.8793 13 18.8793C13.0725 18.8793 13.1439 18.8614 13.2077 18.827C14.5861 18.0522 15.8861 17.1457 17.0896 16.1201C19.716 13.8727 21.0475 11.6494 21.0475 9.51313C21.0461 8.34936 20.5832 7.23365 19.7603 6.41074C18.9374 5.58783 17.8217 5.12493 16.6579 5.12357ZM13 17.9345C11.7994 17.2417 5.83036 13.5896 5.83036 9.51313C5.83133 8.58208 6.20162 7.68944 6.85997 7.03109C7.51832 6.37274 8.41096 6.00245 9.34201 6.00148C10.8257 6.00148 12.0716 6.7938 12.5939 8.0697C12.627 8.1502 12.6833 8.21907 12.7556 8.26753C12.8279 8.31599 12.9129 8.34186 13 8.34186C13.087 8.34186 13.1721 8.31599 13.2444 8.26753C13.3167 8.21907 13.3729 8.1502 13.406 8.0697C13.9284 6.7938 15.1743 6.00148 16.6579 6.00148C17.589 6.00245 18.4816 6.37274 19.14 7.03109C19.7983 7.68944 20.1686 8.58208 20.1696 9.51313C20.1696 13.5896 14.2005 17.2417 13 17.9345Z" fill="#FF0000"/>
<path d="M16.6579 5.12357L16.6614 2.12357H16.6579V5.12357ZM13 6.97743L10.5154 8.65883L13 12.3301L15.4845 8.65883L13 6.97743ZM9.34201 5.12357L9.34201 2.12357L9.33851 2.12358L9.34201 5.12357ZM4.95245 9.51313L1.95245 9.50963V9.51313H4.95245ZM8.91037 16.1201L6.95987 18.3995L6.96463 18.4036L8.91037 16.1201ZM12.7922 18.827L11.3221 21.4421L11.347 21.4561L11.3722 21.4697L12.7922 18.827ZM13.2077 18.827L14.6277 21.4697L14.6529 21.4561L14.6779 21.4421L13.2077 18.827ZM17.0896 16.1201L19.0353 18.4036L19.0401 18.3995L17.0896 16.1201ZM21.0475 9.51313L24.0475 9.51313L24.0475 9.50963L21.0475 9.51313ZM13 17.9345L11.5005 20.5329L13 21.3982L14.4995 20.5329L13 17.9345ZM5.83036 9.51313L2.83036 9.51001V9.51313H5.83036ZM9.34201 6.00148L9.34201 3.00148L9.33889 3.00149L9.34201 6.00148ZM12.5939 8.0697L9.8176 9.20634L9.81894 9.2096L12.5939 8.0697ZM13.406 8.0697L16.181 9.2096L16.1823 9.20634L13.406 8.0697ZM16.6579 6.00148L16.6611 3.00148H16.6579V6.00148ZM20.1696 9.51313L23.1696 9.51313L23.1696 9.51001L20.1696 9.51313ZM16.6579 2.12357C14.201 2.12357 11.9 3.25007 10.5154 5.29603L15.4845 8.65883C15.6714 8.38272 16.0421 8.12357 16.6579 8.12357V2.12357ZM15.4845 5.29603C14.0999 3.25007 11.7989 2.12357 9.34201 2.12357V8.12357C9.95779 8.12357 10.3286 8.38272 10.5154 8.65883L15.4845 5.29603ZM9.33851 2.12358C7.38031 2.12586 5.50296 2.90476 4.1183 4.28942L8.36094 8.53206C8.6221 8.27091 8.97617 8.124 9.3455 8.12357L9.33851 2.12358ZM4.1183 4.28942C2.73364 5.67408 1.95474 7.55143 1.95246 9.50963L7.95245 9.51662C7.95288 9.14729 8.09979 8.79322 8.36094 8.53206L4.1183 4.28942ZM1.95245 9.51313C1.95245 12.9456 4.07116 15.9276 6.95988 18.3995L10.8609 13.8408C8.49674 11.8178 7.95245 10.3532 7.95245 9.51313H1.95245ZM6.96463 18.4036C8.31559 19.5547 9.77489 20.5723 11.3221 21.4421L14.2623 16.2119C13.0529 15.532 11.9122 14.7366 10.8561 13.8367L6.96463 18.4036ZM11.3722 21.4697C11.8726 21.7386 12.4318 21.8793 13 21.8793V15.8793C13.4231 15.8793 13.8395 15.9841 14.2122 16.1844L11.3722 21.4697ZM13 21.8793C13.5681 21.8793 14.1273 21.7386 14.6277 21.4697L11.7877 16.1844C12.1604 15.9841 12.5769 15.8793 13 15.8793V21.8793ZM14.6779 21.4421C16.2251 20.5723 17.6843 19.5547 19.0353 18.4036L15.1438 13.8367C14.0878 14.7366 12.9471 15.532 11.7376 16.2119L14.6779 21.4421ZM19.0401 18.3995C21.9288 15.9276 24.0475 12.9456 24.0475 9.51313H18.0475C18.0475 10.3532 17.5032 11.8178 15.1391 13.8408L19.0401 18.3995ZM24.0475 9.50963C24.0452 7.55143 23.2663 5.67408 21.8816 4.28942L17.639 8.53206C17.9002 8.79322 18.0471 9.14729 18.0475 9.51662L24.0475 9.50963ZM21.8816 4.28942C20.497 2.90476 18.6196 2.12586 16.6614 2.12358L16.6544 8.12357C17.0238 8.124 17.3778 8.27091 17.639 8.53206L21.8816 4.28942ZM14.4995 15.3361C13.9777 15.035 12.4017 14.0765 10.9948 12.7837C9.43222 11.3477 8.83036 10.187 8.83036 9.51313H2.83036C2.83036 12.9157 5.21304 15.6192 6.93508 17.2016C8.81288 18.9272 10.8217 20.1411 11.5005 20.5329L14.4995 15.3361ZM8.83036 9.51625C8.8305 9.37977 8.88478 9.24892 8.98129 9.15241L4.73865 4.90977C3.51845 6.12997 2.83216 7.78439 2.83037 9.51001L8.83036 9.51625ZM8.98129 9.15241C9.0778 9.0559 9.20865 9.00162 9.34513 9.00148L9.33889 3.00149C7.61327 3.00328 5.95885 3.68957 4.73865 4.90977L8.98129 9.15241ZM9.34201 9.00148C9.54727 9.00148 9.66517 9.05462 9.71853 9.08855C9.76758 9.11975 9.79627 9.15424 9.8176 9.20634L15.3703 6.93305C14.3423 4.42221 11.9226 3.00148 9.34201 3.00148L9.34201 9.00148ZM9.81894 9.2096C10.078 9.84033 10.5188 10.3798 11.0852 10.7595L14.4259 5.77557C14.8478 6.05832 15.176 6.46008 15.3689 6.92979L9.81894 9.2096ZM11.0852 10.7595C11.6516 11.1392 12.3181 11.3419 13 11.3419V5.34186C13.5078 5.34186 14.0041 5.49283 14.4259 5.77557L11.0852 10.7595ZM13 11.3419C13.6819 11.3419 14.3483 11.1392 14.9147 10.7595L11.574 5.77557C11.9958 5.49283 12.4922 5.34186 13 5.34186V11.3419ZM14.9147 10.7595C15.4812 10.3798 15.9219 9.84033 16.181 9.2096L10.631 6.92979C10.824 6.46008 11.1522 6.05832 11.574 5.77557L14.9147 10.7595ZM16.1823 9.20634C16.2037 9.15424 16.2324 9.11975 16.2814 9.08855C16.3348 9.05462 16.4527 9.00148 16.6579 9.00148V3.00148C14.0773 3.00148 11.6576 4.42221 10.6297 6.93305L16.1823 9.20634ZM16.6548 9.00148C16.7913 9.00162 16.9221 9.0559 17.0186 9.15241L21.2613 4.90977C20.0411 3.68957 18.3867 3.00328 16.6611 3.00149L16.6548 9.00148ZM17.0186 9.15241C17.1152 9.24892 17.1694 9.37977 17.1696 9.51625L23.1696 9.51001C23.1678 7.78439 22.4815 6.12997 21.2613 4.90977L17.0186 9.15241ZM17.1696 9.51313C17.1696 10.187 16.5677 11.3477 15.0051 12.7837C13.5982 14.0765 12.0223 15.035 11.5005 15.3361L14.4995 20.5329C15.1782 20.1411 17.1871 18.9272 19.0649 17.2016C20.7869 15.6192 23.1696 12.9157 23.1696 9.51313H17.1696Z" fill="#FF0000" mask="url(#path-11-inside-6_2747_11)"/>
<rect x="2.01349" y="4.12357" width="20.7547" height="13.7557" rx="6.87787" fill="#FF0000"/>
</svg>
